<svg width="195" height="202" viewBox="0 0 195 202" fill="none" xmlns="http://www.w3.org/2000/svg">
<rect x="17.1658" y="105" width="115" height="92" rx="10" stroke="white" stroke-width="10" stroke-linejoin="round"/>
<rect x="41.1658" y="132" width="57" height="46" rx="10" stroke="white" stroke-width="10" stroke-linejoin="round"/>
<path d="M172.166 105V197" stroke="white" stroke-width="10" stroke-linecap="round" stroke-linejoin="round"/>
<path d="M167.166 5L27.1658 4.99999" stroke="white" stroke-width="10" stroke-linecap="round" stroke-linejoin="round"/>
<path fill-rule="evenodd" clip-rule="evenodd" d="M29.9545 17C25.3747 17 21.3802 20.1112 20.2589 24.5516L0.30937 103.552C-1.28589 109.869 3.48949 116 10.005 116H184.327C190.842 116 195.618 109.869 194.022 103.552L174.073 24.5516C172.951 20.1112 168.957 17 164.377 17H29.9545ZM157.166 44C159.927 44 162.166 41.7614 162.166 39C162.166 36.2386 159.927 34 157.166 34L37.1658 34C34.4044 34 32.1658 36.2386 32.1658 39C32.1658 41.7614 34.4044 44 37.1658 44L157.166 44ZM167.166 59C167.166 61.7614 164.927 64 162.166 64L32.1658 64C29.4044 64 27.1658 61.7614 27.1658 59C27.1658 56.2386 29.4044 54 32.1658 54L162.166 54C164.927 54 167.166 56.2386 167.166 59ZM167.166 84C169.927 84 172.166 81.7614 172.166 79C172.166 76.2386 169.927 74 167.166 74L27.1658 74C24.4044 74 22.1658 76.2386 22.1658 79C22.1658 81.7614 24.4044 84 27.1658 84L167.166 84Z" fill="white"/>
</svg>
